<svg xmlns="http://www.w3.org/2000/svg" viewBox="0 0 256.92 264.62"><defs><style>.cls-1{fill:#fff;}</style></defs><g id="Layer_2" data-name="Layer 2"><g id="Object"><path class="cls-1" d="M109.09,172.6c-6.61,2.3-12,4.44-17.51,6-15.84,4.57-27,14.47-34.18,29.15-2.78,5.69-5.44,11.47-8.69,16.89-8,13.42-20.59,19.85-35.72,21.44-2.13.23-5.3-1.62-6.7-3.47-7.36-9.75-7.83-20.56-3.64-31.71C13,183.35,48.9,158.08,78.41,157.67,90.4,157.5,100.79,161,109.09,172.6Z"/><path class="cls-1" d="M78.5,2.84c-1,6.59-1.6,12.09-2.85,17.44C71.3,39,76.11,55.43,88.09,70c12.38,15,16.6,31.51,10.06,50.38-1.57,4.53-4,6.37-8.7,6.73-15,1.13-25.59-6.43-32.72-18.28C41.53,83.53,38.57,56.34,48.25,28.4,52.88,15.05,61.82,5.36,78.5,2.84Z"/><path class="cls-1" d="M227.3,94.54c-3,3.52-5.6,7.23-8.85,10.19-14.81,13.46-20.59,30.12-19,49.88a92,92,0,0,1-.53,21.18c-1.95,12.45-9.6,21.64-19.66,28.66-1.94,1.34-5.87,1.37-8.17.37-11.61-5-17.62-14.83-18.23-26.86-1.77-34.62,12.18-62.06,40.5-81.81C203.94,88.75,216.37,88.67,227.3,94.54Z"/><path class="cls-1" d="M106.82,123c1.19-6,2-10.41,3-14.82,3.12-13.78,1-26.78-8.86-36.88-18.53-18.9-20-40.89-14.57-65C87.67.56,90.23-.51,95.24.19c11,1.52,19.6,7.21,25.82,15.9,19,26.52,21.7,55.09,8.76,84.89A39.39,39.39,0,0,1,106.82,123Z"/><path class="cls-1" d="M185.29,210c4.68-4,8-6.73,11.07-9.6,11.72-10.86,16.36-24.27,13.2-39.9-5.25-26,7.68-44.34,25.17-60.69,1.3-1.22,5.82-.73,7.62.61,11.14,8.29,14.86,20.5,14.55,33.52-.69,29.85-13.46,53.62-38.48,70.26C209.3,210.26,199.08,212.82,185.29,210Z"/><path class="cls-1" d="M17.34,254.49c6.31-1.83,11.41-3.22,16.45-4.79C47,245.55,56.49,237,60.45,223.75,68.2,197.8,88.17,187,112,180.82c1.86-.47,5.71,1.77,6.67,3.71,4.78,9.68,3.79,19.73.13,29.53-10.56,28.23-43.31,50.79-73.43,50.56C35.36,264.54,25.83,262.6,17.34,254.49Z"/></g></g></svg>