<svg xmlns="http://www.w3.org/2000/svg" viewBox="0 0 247.96 257.31"><defs><style>.cls-1{fill:#fff;}</style></defs><g id="Layer_2" data-name="Layer 2"><g id="Layer_1-2" data-name="Layer 1"><path class="cls-1" d="M194.68,162.85a51.73,51.73,0,0,0-6.27-9.62c-6.46-7.91-14.74-13.95-22.66-20.9-12-10.54-21.11-20.87-28.16-35.28-1.34-2.74-12.85-28.42-12-32.77,0,0-67.78,55.53-58.45,128.27,2.86,22.35,12.84,44.87,33.22,56.34,22.54,12.68,53.13,10.79,74.19-4C200,227.11,208.78,191.09,194.68,162.85Zm-6.76,43.79S181,234,152.8,247.27c0,0,42.27-42.53,3-106.48C155.81,140.79,199.46,161.93,187.92,206.64Z"/><path class="cls-1" d="M123.22,50.37S68.45,26,7.61,99.05C7.61,99.05,91.27,70.15,123.22,50.37Z"/><path class="cls-1" d="M123.22,50.37S92.79-15,0,3.22Z"/><path class="cls-1" d="M121.7,50.37S181,.17,248,38.2Z"/><path class="cls-1" d="M121.66,49.76s71.08,16.78,68.53,94Z"/><path class="cls-1" d="M59.54,146.39a101.2,101.2,0,0,1-17.63-3.75,207.34,207.34,0,0,0-10.13,25,141.34,141.34,0,0,0,23.46,3.92A120,120,0,0,1,59.54,146.39Z"/><path class="cls-1" d="M55.1,174.72a95.69,95.69,0,0,1-24-5.23,201.19,201.19,0,0,0-7,28.23c11.3,2.51,22.37,4.88,33.94,6A105.54,105.54,0,0,1,55.1,174.72Z"/><path class="cls-1" d="M69.6,120.3a88.61,88.61,0,0,1-12.89-3.59,220.85,220.85,0,0,0-13.77,23.81,160.59,160.59,0,0,0,17.47,2.86A151.8,151.8,0,0,1,69.6,120.3Z"/><path class="cls-1" d="M81.61,99.43a45.38,45.38,0,0,1-9.88-2.89c-4.63,5.57-9.25,11.64-13.71,18.23,4.26,1.18,8.55,2.16,12.9,2.92A196.82,196.82,0,0,1,81.61,99.43Z"/><path class="cls-1" d="M93.22,73.83c1.86.91,3.74,1.75,5.63,2.54a334.92,334.92,0,0,1,24.35-26C122.64,50.72,109.71,58.48,93.22,73.83Z"/><path class="cls-1" d="M73.44,94.52c3.28.9,6.61,1.63,9.94,2.27Q89.61,87.61,97.49,78a52.77,52.77,0,0,1-5.35-3.19A246.77,246.77,0,0,0,73.44,94.52Z"/><path class="cls-1" d="M67.53,228.3a107.74,107.74,0,0,1-8.42-20.89c-11.89-.52-24.27-2.45-35.42-6.71a214.61,214.61,0,0,0-2.33,22.13c8.71,1.59,17.37,3.47,26.22,4.39C54.23,227.9,60.88,228.2,67.53,228.3Z"/><path class="cls-1" d="M69.2,231.34c-15.91.15-32.86-1.42-47.95-6.12-.27,6.45-.27,13.07.05,19.87,0,0,18.25,10.65,66.93,10.65C88.23,255.74,78.22,247.19,69.2,231.34Z"/></g></g></svg>